<svg width="480" height="48" viewBox="0 0 480 48" fill="none" xmlns="http://www.w3.org/2000/svg">
<path d="M24 48C36.2388 48 46.3374 38.8389 47.814 27H41.751C40.3228 35.5129 32.9187 42 24 42C14.0588 42 6 33.9412 6 24C6 14.0588 14.0588 6 24 6C32.9187 6 40.3228 12.4871 41.751 21H47.814C46.3374 9.16113 36.2388 0 24 0C10.7454 0 0 10.7454 0 24C0 37.2546 10.7454 48 24 48Z" fill="#BC002D"/>
<path d="M24 39C32.2844 39 39 32.2844 39 24C39 15.7156 32.2844 9 24 9C16.7432 9 10.6897 14.1533 9.30029 21H15.512C16.7476 17.5049 20.0815 15 24 15C28.9702 15 33 19.0298 33 24C33 28.9702 28.9702 33 24 33C20.0815 33 16.7476 30.4951 15.512 27H9.30029C10.6897 33.8467 16.7432 39 24 39Z" fill="#BC002D"/>
<path d="M75.5027 41.478C73.0171 41.478 70.6908 41.0478 68.5238 40.1874C66.3568 39.2951 64.4607 38.0682 62.8355 36.5067C61.2422 34.9452 59.9834 33.1288 59.0593 31.0574C58.167 28.9542 57.7208 26.6916 57.7208 24.2697C57.7208 21.8159 58.167 19.5534 59.0593 17.482C59.9834 15.3788 61.2581 13.5464 62.8833 11.9849C64.5085 10.4234 66.3887 9.21245 68.5238 8.35203C70.6908 7.45975 73.0171 7.01361 75.5027 7.01361C77.351 7.01361 79.1356 7.26855 80.8564 7.77842C82.5773 8.2883 84.1706 9.00531 85.6365 9.92946C87.1343 10.8536 88.409 11.969 89.4606 13.2755L84.7761 17.9122C83.5651 16.4144 82.163 15.2832 80.5696 14.5183C79.0081 13.7535 77.3192 13.3711 75.5027 13.3711C74.005 13.3711 72.6028 13.6579 71.2963 14.2315C69.9897 14.7733 68.8584 15.5381 67.9024 16.526C66.9464 17.482 66.1975 18.6292 65.6558 19.9676C65.114 21.2742 64.8432 22.7082 64.8432 24.2697C64.8432 25.7993 65.114 27.2334 65.6558 28.5718C66.1975 29.8783 66.9623 31.0256 67.9502 32.0134C68.9381 32.9695 70.0853 33.7183 71.3919 34.2601C72.7303 34.8018 74.1803 35.0727 75.7417 35.0727C77.4944 35.0727 79.1356 34.7062 80.6652 33.9733C82.1949 33.2403 83.5492 32.1887 84.7283 30.8184L89.2694 35.3117C88.2178 36.5864 86.959 37.6858 85.4931 38.61C84.0272 39.5341 82.4339 40.2511 80.713 40.761C79.0241 41.239 77.2873 41.478 75.5027 41.478ZM105.289 41.478C102.803 41.478 100.556 40.9044 98.5487 39.7572C96.5411 38.61 94.9477 37.0644 93.7686 35.1205C92.5895 33.1766 92 30.9937 92 28.5718C92 26.1499 92.5736 23.967 93.7208 22.0231C94.8999 20.0473 96.4933 18.4858 98.5009 17.3386C100.54 16.1914 102.803 15.6178 105.289 15.6178C107.774 15.6178 110.021 16.1914 112.029 17.3386C114.068 18.4858 115.661 20.0473 116.809 22.0231C117.988 23.967 118.577 26.1499 118.577 28.5718C118.577 30.9937 117.988 33.1766 116.809 35.1205C115.661 37.0644 114.084 38.61 112.076 39.7572C110.069 40.9044 107.806 41.478 105.289 41.478ZM105.289 35.7897C106.595 35.7897 107.758 35.471 108.778 34.8337C109.83 34.1963 110.658 33.3359 111.264 32.2524C111.901 31.1371 112.22 29.9102 112.22 28.5718C112.22 27.2015 111.901 25.9746 111.264 24.8911C110.658 23.8076 109.83 22.9472 108.778 22.3099C107.758 21.6407 106.595 21.3061 105.289 21.3061C104.014 21.3061 102.851 21.6407 101.799 22.3099C100.748 22.9472 99.919 23.8076 99.3135 24.8911C98.7081 25.9746 98.4053 27.2015 98.4053 28.5718C98.4053 29.9102 98.7081 31.1371 99.3135 32.2524C99.919 33.3359 100.748 34.1963 101.799 34.8337C102.851 35.471 104.014 35.7897 105.289 35.7897ZM123.559 41V16.0958H130.107V18.0078C131.892 16.4144 134.059 15.6178 136.608 15.6178C138.233 15.6178 139.683 15.9524 140.958 16.6216C142.233 17.2589 143.284 18.1671 144.113 19.3462C145.133 18.1353 146.328 17.2111 147.698 16.5738C149.1 15.9364 150.646 15.6178 152.335 15.6178C154.215 15.6178 155.856 16.048 157.258 16.9084C158.692 17.7369 159.808 18.9001 160.604 20.3978C161.433 21.8637 161.847 23.5846 161.847 25.5603V41H155.346V26.5163C155.346 24.8911 154.916 23.6164 154.056 22.6923C153.195 21.7363 152.048 21.2583 150.614 21.2583C149.626 21.2583 148.718 21.4654 147.889 21.8797C147.093 22.2939 146.407 22.9154 145.834 23.7439C145.866 24.0307 145.898 24.3175 145.929 24.6043C145.961 24.8911 145.977 25.2098 145.977 25.5603V41H139.429V26.5163C139.429 24.8911 138.998 23.6164 138.138 22.6923C137.309 21.7363 136.178 21.2583 134.744 21.2583C133.756 21.2583 132.864 21.4495 132.067 21.8319C131.302 22.2143 130.649 22.7879 130.107 23.5527V41H123.559ZM167.787 41V16.0958H174.336V18.0078C176.121 16.4144 178.288 15.6178 180.837 15.6178C182.462 15.6178 183.912 15.9524 185.187 16.6216C186.462 17.2589 187.513 18.1671 188.342 19.3462C189.362 18.1353 190.557 17.2111 191.927 16.5738C193.329 15.9364 194.875 15.6178 196.564 15.6178C198.444 15.6178 200.085 16.048 201.487 16.9084C202.921 17.7369 204.036 18.9001 204.833 20.3978C205.662 21.8637 206.076 23.5846 206.076 25.5603V41H199.575V26.5163C199.575 24.8911 199.145 23.6164 198.284 22.6923C197.424 21.7363 196.277 21.2583 194.843 21.2583C193.855 21.2583 192.947 21.4654 192.118 21.8797C191.321 22.2939 190.636 22.9154 190.063 23.7439C190.095 24.0307 190.126 24.3175 190.158 24.6043C190.19 24.8911 190.206 25.2098 190.206 25.5603V41H183.657V26.5163C183.657 24.8911 183.227 23.6164 182.367 22.6923C181.538 21.7363 180.407 21.2583 178.973 21.2583C177.985 21.2583 177.093 21.4495 176.296 21.8319C175.531 22.2143 174.878 22.7879 174.336 23.5527V41H167.787ZM224.158 41.478C221.672 41.478 219.425 40.9044 217.418 39.7572C215.41 38.61 213.817 37.0644 212.638 35.1205C211.459 33.1766 210.869 30.9937 210.869 28.5718C210.869 26.1499 211.443 23.967 212.59 22.0231C213.769 20.0473 215.362 18.4858 217.37 17.3386C219.41 16.1914 221.672 15.6178 224.158 15.6178C226.643 15.6178 228.89 16.1914 230.898 17.3386C232.937 18.4858 234.531 20.0473 235.678 22.0231C236.857 23.967 237.446 26.1499 237.446 28.5718C237.446 30.9937 236.857 33.1766 235.678 35.1205C234.531 37.0644 232.953 38.61 230.945 39.7572C228.938 40.9044 226.675 41.478 224.158 41.478ZM224.158 35.7897C225.464 35.7897 226.627 35.471 227.647 34.8337C228.699 34.1963 229.527 33.3359 230.133 32.2524C230.77 31.1371 231.089 29.9102 231.089 28.5718C231.089 27.2015 230.77 25.9746 230.133 24.8911C229.527 23.8076 228.699 22.9472 227.647 22.3099C226.627 21.6407 225.464 21.3061 224.158 21.3061C222.883 21.3061 221.72 21.6407 220.668 22.3099C219.617 22.9472 218.788 23.8076 218.183 24.8911C217.577 25.9746 217.274 27.2015 217.274 28.5718C217.274 29.9102 217.577 31.1371 218.183 32.2524C218.788 33.3359 219.617 34.1963 220.668 34.8337C221.72 35.471 222.883 35.7897 224.158 35.7897ZM242.428 41V16.0958H248.976V18.1512C250.857 16.4622 253.183 15.6178 255.955 15.6178C257.899 15.6178 259.604 16.048 261.07 16.9084C262.568 17.7369 263.731 18.9001 264.56 20.3978C265.388 21.8637 265.802 23.5846 265.802 25.5603V41H259.254V26.5163C259.254 24.8911 258.792 23.6164 257.867 22.6923C256.943 21.7363 255.684 21.2583 254.091 21.2583C252.976 21.2583 251.988 21.4813 251.127 21.9275C250.267 22.3417 249.55 22.9472 248.976 23.7439V41H242.428ZM288.64 41.478C286.155 41.478 283.828 41.0478 281.661 40.1874C279.494 39.2951 277.598 38.0682 275.973 36.5067C274.38 34.9452 273.121 33.1288 272.197 31.0574C271.305 28.9542 270.858 26.6916 270.858 24.2697C270.858 21.8159 271.305 19.5534 272.197 17.482C273.121 15.3788 274.396 13.5464 276.021 11.9849C277.646 10.4234 279.526 9.21245 281.661 8.35203C283.828 7.45975 286.155 7.01361 288.64 7.01361C290.489 7.01361 292.273 7.26855 293.994 7.77842C295.715 8.2883 297.308 9.00531 298.774 9.92946C300.272 10.8536 301.547 11.969 302.598 13.2755L297.914 17.9122C296.703 16.4144 295.301 15.2832 293.707 14.5183C292.146 13.7535 290.457 13.3711 288.64 13.3711C287.143 13.3711 285.74 13.6579 284.434 14.2315C283.127 14.7733 281.996 15.5381 281.04 16.526C280.084 17.482 279.335 18.6292 278.793 19.9676C278.252 21.2742 277.981 22.7082 277.981 24.2697C277.981 25.7993 278.252 27.2334 278.793 28.5718C279.335 29.8783 280.1 31.0256 281.088 32.0134C282.076 32.9695 283.223 33.7183 284.529 34.2601C285.868 34.8018 287.318 35.0727 288.879 35.0727C290.632 35.0727 292.273 34.7062 293.803 33.9733C295.332 33.2403 296.687 32.1887 297.866 30.8184L302.407 35.3117C301.355 36.5864 300.097 37.6858 298.631 38.61C297.165 39.5341 295.571 40.2511 293.851 40.761C292.162 41.239 290.425 41.478 288.64 41.478ZM306.985 41V16.0958H313.534V18.8682C314.33 17.7847 315.286 16.9562 316.402 16.3826C317.517 15.809 318.776 15.5222 320.178 15.5222C321.389 15.554 322.297 15.7452 322.903 16.0958V21.8319C322.425 21.6088 321.899 21.4495 321.325 21.3539C320.752 21.2264 320.162 21.1627 319.557 21.1627C318.282 21.1627 317.119 21.4813 316.067 22.1187C315.016 22.756 314.171 23.6642 313.534 24.8433V41H306.985ZM338.662 41.478C336.177 41.478 333.914 40.9044 331.875 39.7572C329.867 38.61 328.274 37.0644 327.095 35.1205C325.915 33.1766 325.326 30.9937 325.326 28.5718C325.326 26.1499 325.884 23.967 326.999 22.0231C328.146 20.0792 329.692 18.5336 331.636 17.3864C333.58 16.2392 335.747 15.6656 338.137 15.6656C340.527 15.6656 342.646 16.2551 344.494 17.4342C346.342 18.6133 347.792 20.2066 348.844 22.2143C349.927 24.2219 350.469 26.5004 350.469 29.0498V30.7706H332.018C332.305 31.7585 332.767 32.6508 333.404 33.4475C334.073 34.2441 334.886 34.8656 335.842 35.3117C336.83 35.7578 337.882 35.9809 338.997 35.9809C340.112 35.9809 341.132 35.8056 342.056 35.4551C343.012 35.1046 343.825 34.6106 344.494 33.9733L348.796 37.8929C347.267 39.1358 345.689 40.044 344.064 40.6176C342.47 41.1912 340.67 41.478 338.662 41.478ZM331.922 26.0861H344.016C343.793 25.0983 343.379 24.2378 342.773 23.5049C342.2 22.7401 341.499 22.1505 340.67 21.7363C339.873 21.2901 338.981 21.0671 337.993 21.0671C336.973 21.0671 336.049 21.2742 335.221 21.6885C334.392 22.1027 333.691 22.6923 333.117 23.4571C332.576 24.19 332.177 25.0664 331.922 26.0861ZM363.232 41.4302C361.448 41.4302 359.87 41.1115 358.5 40.4742C357.13 39.805 356.062 38.8968 355.297 37.7495C354.533 36.6023 354.15 35.2798 354.15 33.7821C354.15 31.392 355.042 29.5437 356.827 28.2372C358.643 26.8988 361.129 26.2295 364.284 26.2295C366.451 26.2295 368.49 26.5641 370.402 27.2334V25.4169C370.402 23.9829 369.956 22.8994 369.064 22.1665C368.172 21.4335 366.865 21.0671 365.144 21.0671C364.093 21.0671 362.961 21.2423 361.751 21.5929C360.54 21.9115 359.137 22.4214 357.544 23.1225L355.154 18.2946C357.13 17.4023 359.01 16.7331 360.795 16.287C362.611 15.8408 364.427 15.6178 366.244 15.6178C369.59 15.6178 372.187 16.4304 374.035 18.0556C375.916 19.649 376.856 21.9115 376.856 24.8433V41H370.402V39.2314C369.383 39.9962 368.283 40.5539 367.104 40.9044C365.925 41.2549 364.635 41.4302 363.232 41.4302ZM360.364 33.6387C360.364 34.5947 360.779 35.3595 361.607 35.9331C362.436 36.4749 363.535 36.7457 364.905 36.7457C365.989 36.7457 366.993 36.6183 367.917 36.3633C368.841 36.0765 369.67 35.6622 370.402 35.1205V31.4876C369.606 31.169 368.777 30.93 367.917 30.7706C367.056 30.6113 366.132 30.5316 365.144 30.5316C363.647 30.5316 362.468 30.8184 361.607 31.392C360.779 31.9338 360.364 32.6827 360.364 33.6387ZM393.875 41.3824C391.102 41.3824 388.999 40.761 387.565 39.5182C386.163 38.2435 385.462 36.3952 385.462 33.9733V21.5451H380.347V16.0958H385.462V9.73825L392.01 8.25643V16.0958H399.133V21.5451H392.01V32.6349C392.01 33.7821 392.265 34.6106 392.775 35.1205C393.285 35.5985 394.177 35.8375 395.452 35.8375C396.089 35.8375 396.663 35.8056 397.173 35.7419C397.715 35.6463 398.304 35.487 398.941 35.2639V40.6654C398.272 40.8885 397.428 41.0637 396.408 41.1912C395.42 41.3187 394.576 41.3824 393.875 41.3824ZM403.283 41V16.0958H409.832V41H403.283ZM406.534 13.1321C405.514 13.1321 404.637 12.7656 403.905 12.0327C403.172 11.2998 402.805 10.4234 402.805 9.40365C402.805 8.35203 403.172 7.47568 403.905 6.7746C404.637 6.04166 405.514 5.67518 406.534 5.67518C407.585 5.67518 408.462 6.04166 409.163 6.7746C409.896 7.47568 410.262 8.35203 410.262 9.40365C410.262 10.4234 409.896 11.2998 409.163 12.0327C408.462 12.7656 407.585 13.1321 406.534 13.1321ZM428.051 41.478C425.565 41.478 423.318 40.9044 421.311 39.7572C419.303 38.61 417.71 37.0644 416.531 35.1205C415.352 33.1766 414.762 30.9937 414.762 28.5718C414.762 26.1499 415.336 23.967 416.483 22.0231C417.662 20.0473 419.255 18.4858 421.263 17.3386C423.302 16.1914 425.565 15.6178 428.051 15.6178C430.536 15.6178 432.783 16.1914 434.791 17.3386C436.83 18.4858 438.423 20.0473 439.571 22.0231C440.75 23.967 441.339 26.1499 441.339 28.5718C441.339 30.9937 440.75 33.1766 439.571 35.1205C438.423 37.0644 436.846 38.61 434.838 39.7572C432.831 40.9044 430.568 41.478 428.051 41.478ZM428.051 35.7897C429.357 35.7897 430.52 35.471 431.54 34.8337C432.592 34.1963 433.42 33.3359 434.026 32.2524C434.663 31.1371 434.982 29.9102 434.982 28.5718C434.982 27.2015 434.663 25.9746 434.026 24.8911C433.42 23.8076 432.592 22.9472 431.54 22.3099C430.52 21.6407 429.357 21.3061 428.051 21.3061C426.776 21.3061 425.613 21.6407 424.561 22.3099C423.51 22.9472 422.681 23.8076 422.076 24.8911C421.47 25.9746 421.167 27.2015 421.167 28.5718C421.167 29.9102 421.47 31.1371 422.076 32.2524C422.681 33.3359 423.51 34.1963 424.561 34.8337C425.613 35.471 426.776 35.7897 428.051 35.7897ZM446.321 41V16.0958H452.869V18.1512C454.75 16.4622 457.076 15.6178 459.848 15.6178C461.792 15.6178 463.497 16.048 464.963 16.9084C466.461 17.7369 467.624 18.9001 468.452 20.3978C469.281 21.8637 469.695 23.5846 469.695 25.5603V41H463.147V26.5163C463.147 24.8911 462.684 23.6164 461.76 22.6923C460.836 21.7363 459.577 21.2583 457.984 21.2583C456.869 21.2583 455.881 21.4813 455.02 21.9275C454.16 22.3417 453.443 22.9472 452.869 23.7439V41H446.321Z" fill="#BC002D"/>
</svg>
